<?xml version="1.0" encoding="iso-8859-1"?>
<!-- Generator: Adobe Illustrator 19.0.0, SVG Export Plug-In . SVG Version: 6.00 Build 0)  -->
<svg version="1.1" id="Capa_1" xmlns="http://www.w3.org/2000/svg" xmlns:xlink="http://www.w3.org/1999/xlink" x="0px" y="0px"
	 viewBox="0 0 512 512" style="enable-background:new 0 0 512 512;" xml:space="preserve">
<polygon style="fill:#0091BF;" points="376,451 376,512 166,512 166,451 271,421 "/>
<polygon style="fill:#007A9F;" points="376,451 376,512 271,512 271,421 "/>
<path style="fill:#ED9C4C;" d="M406,241v69.6c0,25.499-6,50.999-17.401,73.799C382.899,397,376,404.5,376,420.099V451H217.599
	L136,241H406z"/>
<path style="fill:#DB8952;" d="M406,241v69.6c0,25.499-6,50.999-17.401,73.799C382.899,397,376,404.5,376,420.099V451H271V241H406z"
	/>
<path style="fill:#F8BB5E;" d="M237.25,91L237.25,91C218.61,91,203,106.11,203,124.75v-91C203,15.11,188.39,0,169.75,0l0,0
	C151.11,0,136,15.11,136,33.75v203.5c0,18.64,15.11,33.75,33.75,33.75l0,0c18.64,0,33.25-15.11,33.25-33.75
	c0,18.64,15.61,33.75,34.25,33.75l0,0c18.64,0,33.75-15.11,33.75-33.75L286,196l-15-41v-30.25C271,106.11,255.89,91,237.25,91z"/>
<path style="fill:#ED9C4C;" d="M372.25,151L372.25,151c-18.64,0-34.25,15.11-34.25,33.75v-30c0-18.64-14.61-33.75-33.25-33.75l0,0
	c-18.64,0-33.75,15.11-33.75,33.75v82.5c0,18.64,15.11,33.75,33.75,33.75l0,0c18.64,0,33.25-15.11,33.25-33.75v30
	c0,18.64,15.61,33.75,34.25,33.75l0,0c18.64,0,33.75-15.11,33.75-33.75v-82.5C406,166.11,390.89,151,372.25,151z"/>
<path style="fill:#FFD27B;" d="M166,430.901V451h75V346c0-57.9-47.1-105-105-105h75c33.137,0,60-26.863,60-60H151
	c-24.853,0-45,20.147-45,45c0,3.08,0,67.522,0,64.501C106,328.9,122.5,366.7,153.701,400C161.8,408.401,166,419.5,166,430.901z"/>
<g>
</g>
<g>
</g>
<g>
</g>
<g>
</g>
<g>
</g>
<g>
</g>
<g>
</g>
<g>
</g>
<g>
</g>
<g>
</g>
<g>
</g>
<g>
</g>
<g>
</g>
<g>
</g>
<g>
</g>
</svg>
